<svg height="24" viewBox="0 -960 960 960" fill="#2C5A0D" width="24" xmlns="http://www.w3.org/2000/svg"><path d="m480-360q50 0 85-35t35-85q0-50-35-85t-85-35q-50 0-85 35t-35 85q0 50 35 85t85 35zm0 80q-83 0-141.5-58.5t-58.5-141.5q0-83 58.5-141.5t141.5-58.5q83 0 141.5 58.5t58.5 141.5q0 83-58.5 141.5t-141.5 58.5zm-280-160h-160v-80h160zm720 0h-160v-80h160zm-480-320v-160h80v160zm0 720v-160h80v160zm-184-610-101-97 57-59 96 100zm492 496-97-101 53-55 101 97zm-98-550 97-101 59 57-100 96zm-496 492 101-97 55 53-97 101z"/></svg>